<svg xmlns="http://www.w3.org/2000/svg" xmlns:xlink="http://www.w3.org/1999/xlink" width="40" height="40" viewBox="0 0 40 40" fill="none"><path d="M37.4766 15.5273C37.4766 15.5703 37.4805 15.6211 37.4805 15.6797C37.4805 16.7031 37.2656 17.7773 36.8242 18.9648C36.6641 19.4141 36.4648 19.8711 36.2148 20.3672L36.207 20.3789L36.1953 20.4102L36.1328 20.5195C36.1172 20.543 36.1016 20.5742 36.082 20.6172L36.0391 20.6992C35.9492 20.8789 35.832 21.1055 35.6836 21.3438C34.1289 24.0625 31.5117 27.1289 27.9023 30.457C26.043 32.1719 24.0078 33.875 21.8555 35.5117C21.7773 35.5742 21.7227 35.6133 21.6992 35.6328L21.6875 35.6445C21.1914 36.0312 20.582 36.2422 19.9727 36.2422C19.3555 36.2422 18.7656 36.0352 18.2656 35.6484L18.2617 35.6445C18.2422 35.6289 18.1953 35.5938 18.1328 35.5469C15.1016 33.2539 12.7656 31.1641 11.3437 29.8125C7.27734 25.9688 4.59374 22.4961 3.36718 19.5C3.33984 19.4414 3.32422 19.3906 3.30859 19.3555L3.30469 19.3438C2.78515 18.043 2.52344 16.8086 2.52344 15.6758C2.52344 15.6445 2.52344 15.6055 2.52734 15.5625C2.51171 15.4102 2.5 15.2461 2.5 15.0547C2.49999 8.82031 7.29297 3.75 13.1836 3.75C14.6289 3.75 16.0352 4.05859 17.3711 4.67188C18.3242 5.10938 19.207 5.67969 19.9961 6.38281C20.7852 5.68359 21.6641 5.10938 22.6172 4.67188C23.957 4.05859 25.3672 3.75 26.8164 3.75C32.707 3.75 37.5 8.82031 37.5 15.0547C37.5 15.2461 37.4883 15.4102 37.4766 15.5273Z"   fill="#FFFFFF" ></path></svg>