<svg xmlns="http://www.w3.org/2000/svg" xmlns:xlink="http://www.w3.org/1999/xlink" width="20.888671875" height="20.64776611328125" viewBox="0 0 20.888671875 20.64776611328125" fill="none"><path d="M20.721 0.3304C20.6101 0.178778 20.3951 0 19.99 0C19.8112 0 19.6097 0.0339452 19.3767 0.106362L19.3587 0.113151C19.1821 0.176515 1.29072 6.57859 1.26582 6.58764C0.783806 6.74831 0.125255 6.97009 0.014374 7.47247C-0.02184 7.64447 -0.00825001 7.90472 0.279146 8.17175L0.285941 8.17855C0.681959 8.5293 3.08982 10.4755 3.76646 11.0209C3.81399 11.0594 3.84792 11.1114 3.86377 11.1703L5.13105 16.0403C5.17632 16.2168 5.3732 16.305 5.53388 16.2236L7.79463 15.0943C7.94852 15.0174 8.13635 15.0581 8.24497 15.1916C9.37195 16.5675 12.3614 20.2223 12.5786 20.4395L12.5809 20.4419C12.7574 20.6139 12.9385 20.6478 13.0607 20.6478C13.3413 20.6478 13.5902 20.4735 13.8029 20.1227C13.9342 19.9055 18.5304 7.54036 20.7661 1.56827L20.773 1.55016C20.9428 1.01383 20.9268 0.613277 20.721 0.330398L20.721 0.3304ZM6.41419 14.954L6.78079 14.0171C6.85548 13.8248 7.10894 13.7863 7.24019 13.9447L7.46423 14.2208C7.56833 14.3498 7.53212 14.5422 7.38728 14.6236L6.56581 15.0853C6.47981 15.135 6.37798 15.0468 6.41419 14.954ZM6.51828 12.5643L5.81448 14.3272C5.74207 14.5082 5.48182 14.4901 5.43203 14.3023L4.6626 11.3128C4.63093 11.1883 4.68525 11.0594 4.79613 10.9937L10.904 7.45211C11.1665 7.3005 11.4313 7.64447 11.2163 7.85946L6.58391 12.467C6.55449 12.4964 6.53413 12.528 6.51828 12.5643Z"   fill="url(#linear_fill_13_3246)" ></path><defs><linearGradient id="linear_fill_13_3246" x1="5.791015625" y1="0" x2="17.2626953125" y2="20.64776611328125" gradientUnits="userSpaceOnUse"><stop offset="0" stop-color="#47FCFF"  /><stop offset="1" stop-color="#FF5E87"  /></linearGradient></defs></svg>