<svg xmlns="http://www.w3.org/2000/svg" xmlns:xlink="http://www.w3.org/1999/xlink" width="24" height="24" viewBox="0 0 24 24" fill="none"><path d="M2.05713 11.6788C2.05711 11.7156 2.058 11.7524 2.0598 11.7892C2.0616 11.826 2.0643 11.8627 2.0679 11.8993C2.0715 11.936 2.07599 11.9725 2.08137 12.0089C2.08677 12.0453 2.09305 12.0816 2.10022 12.1177C2.1074 12.1538 2.11546 12.1898 2.1244 12.2255C2.13335 12.2612 2.14315 12.2967 2.15382 12.3319C2.16451 12.3671 2.17605 12.4021 2.18844 12.4368C2.20084 12.4714 2.21409 12.5058 2.22819 12.5398C2.24227 12.5738 2.25717 12.6075 2.2729 12.6408C2.28865 12.674 2.3052 12.7069 2.32254 12.7394C2.33991 12.7719 2.35805 12.8039 2.37697 12.8355C2.3959 12.8671 2.4156 12.8982 2.43606 12.9288C2.45651 12.9594 2.47771 12.9895 2.49965 13.0191C2.52157 13.0487 2.5442 13.0777 2.56757 13.1062C2.59093 13.1346 2.61498 13.1625 2.63971 13.1898C2.66444 13.2171 2.68983 13.2437 2.71587 13.2698C2.7419 13.2958 2.76856 13.3212 2.79586 13.3459C2.82314 13.3707 2.85101 13.3947 2.87947 13.4181C2.90794 13.4415 2.93696 13.4641 2.96655 13.486C2.99614 13.508 3.02624 13.5292 3.05686 13.5496C3.08748 13.5701 3.11858 13.5898 3.15018 13.6087C3.18175 13.6276 3.21379 13.6458 3.24628 13.6631C3.27875 13.6805 3.31164 13.6971 3.34494 13.7128C3.37822 13.7286 3.41188 13.7435 3.44591 13.7576C3.47994 13.7716 3.51429 13.7849 3.54896 13.7973C3.58365 13.8097 3.6186 13.8213 3.65384 13.832C3.68909 13.8427 3.72457 13.8525 3.76029 13.8614C3.79603 13.8704 3.83195 13.8785 3.86806 13.8856C3.9042 13.8928 3.94048 13.8991 3.97691 13.9045C4.01334 13.9099 4.04988 13.9144 4.08654 13.918C4.12319 13.9216 4.15992 13.9243 4.1967 13.9261C4.23349 13.928 4.2703 13.9289 4.30712 13.9289C4.34395 13.9289 4.38075 13.928 4.41754 13.9261C4.45433 13.9243 4.49105 13.9216 4.52771 13.918C4.56436 13.9144 4.60091 13.9099 4.63734 13.9045C4.67377 13.8991 4.71005 13.8928 4.74618 13.8856C4.78229 13.8785 4.81822 13.8704 4.85395 13.8614C4.88967 13.8525 4.92517 13.8427 4.96041 13.832C4.99565 13.8213 5.03061 13.8097 5.06528 13.7973C5.09996 13.7849 5.1343 13.7716 5.16833 13.7576C5.20237 13.7435 5.23603 13.7286 5.2693 13.7128C5.3026 13.6971 5.33548 13.6805 5.36797 13.6631C5.40045 13.6458 5.43248 13.6276 5.46407 13.6087C5.49565 13.5898 5.52676 13.5701 5.55739 13.5496C5.58801 13.5292 5.61811 13.508 5.6477 13.486C5.67728 13.4641 5.70631 13.4415 5.73477 13.4181C5.76323 13.3947 5.7911 13.3707 5.81839 13.3459C5.8457 13.3212 5.87236 13.2958 5.89837 13.2698C5.92442 13.2437 5.94981 13.2171 5.97453 13.1898C5.99926 13.1625 6.0233 13.1346 6.04668 13.1062C6.07005 13.0777 6.09269 13.0487 6.1146 13.0191C6.13653 12.9895 6.15774 12.9594 6.17819 12.9288C6.19863 12.8982 6.21835 12.8671 6.23728 12.8355C6.25621 12.8039 6.27435 12.7719 6.2917 12.7394C6.30905 12.7069 6.32559 12.674 6.34134 12.6408C6.35706 12.6075 6.37197 12.5738 6.38606 12.5398C6.40015 12.5058 6.4134 12.4714 6.4258 12.4368C6.4382 12.4021 6.44973 12.3671 6.46042 12.3319C6.47108 12.2967 6.4809 12.2612 6.48984 12.2255C6.49878 12.1897 6.50686 12.1538 6.51403 12.1177C6.5212 12.0816 6.52747 12.0453 6.53287 12.0089C6.53824 11.9725 6.54274 11.936 6.54634 11.8993C6.54994 11.8627 6.55264 11.826 6.55444 11.7892C6.55624 11.7524 6.55714 11.7156 6.55711 11.6788C6.55714 11.642 6.55624 11.6052 6.55444 11.5684C6.55264 11.5316 6.54994 11.4949 6.54634 11.4583C6.54274 11.4216 6.53824 11.3851 6.53287 11.3487C6.52747 11.3123 6.5212 11.276 6.51403 11.2399C6.50686 11.2038 6.49878 11.1678 6.48984 11.1321C6.4809 11.0964 6.47108 11.0609 6.46042 11.0257C6.44973 10.9904 6.4382 10.9555 6.4258 10.9208C6.4134 10.8862 6.40015 10.8518 6.38606 10.8178C6.37197 10.7838 6.35706 10.7501 6.34134 10.7168C6.32559 10.6835 6.30905 10.6507 6.2917 10.6182C6.27435 10.5857 6.25621 10.5537 6.23728 10.5221C6.21835 10.4905 6.19863 10.4594 6.17819 10.4288C6.15774 10.3982 6.13653 10.3681 6.1146 10.3385C6.09269 10.3089 6.07005 10.2799 6.04668 10.2514C6.0233 10.2229 5.99926 10.1951 5.97453 10.1678C5.94981 10.1405 5.92442 10.1138 5.89837 10.0878C5.87236 10.0618 5.8457 10.0364 5.81839 10.0116C5.7911 9.98692 5.76323 9.96287 5.73477 9.9395C5.70631 9.91614 5.67728 9.8935 5.6477 9.87157C5.61811 9.84962 5.58801 9.82842 5.55739 9.80797C5.52676 9.7875 5.49565 9.7678 5.46407 9.74887C5.43248 9.72994 5.40045 9.7118 5.36797 9.69444C5.33548 9.67708 5.3026 9.66053 5.2693 9.64478C5.23603 9.62904 5.20237 9.61412 5.16833 9.60002C5.1343 9.58593 5.09996 9.57268 5.06528 9.56027C5.03061 9.54786 4.99565 9.53631 4.96041 9.52563C4.92517 9.51493 4.88967 9.5051 4.85395 9.49616C4.81822 9.48722 4.78229 9.47915 4.74618 9.47195C4.71005 9.46478 4.67377 9.45849 4.63734 9.45309C4.60091 9.44767 4.56436 9.44316 4.52771 9.43956C4.49105 9.43595 4.45433 9.43324 4.41754 9.43144C4.38075 9.42962 4.34395 9.42871 4.30712 9.42871C4.2703 9.42871 4.23349 9.42962 4.1967 9.43144C4.15992 9.43324 4.12319 9.43595 4.08654 9.43956C4.04988 9.44316 4.01334 9.44767 3.97691 9.45309C3.94048 9.45849 3.9042 9.46478 3.86806 9.47195C3.83195 9.47915 3.79603 9.48722 3.76029 9.49616C3.72457 9.5051 3.68909 9.51493 3.65384 9.52563C3.6186 9.53631 3.58365 9.54786 3.54896 9.56027C3.51429 9.57268 3.47994 9.58593 3.44591 9.60002C3.41188 9.61412 3.37822 9.62904 3.34494 9.64478C3.31164 9.66053 3.27875 9.67708 3.24628 9.69444C3.21379 9.7118 3.18175 9.72994 3.15018 9.74887C3.11858 9.7678 3.08748 9.7875 3.05686 9.80797C3.02624 9.82842 2.99614 9.84962 2.96655 9.87157C2.93696 9.8935 2.90794 9.91614 2.87947 9.9395C2.85101 9.96287 2.82314 9.98692 2.79586 10.0116C2.76856 10.0364 2.7419 10.0618 2.71587 10.0878C2.68983 10.1138 2.66444 10.1405 2.63971 10.1678C2.61498 10.1951 2.59093 10.2229 2.56757 10.2514C2.5442 10.2799 2.52157 10.3089 2.49965 10.3385C2.47771 10.3681 2.45651 10.3982 2.43606 10.4288C2.4156 10.4594 2.3959 10.4905 2.37697 10.5221C2.35805 10.5537 2.33991 10.5857 2.32254 10.6182C2.3052 10.6507 2.28865 10.6835 2.2729 10.7168C2.25717 10.7501 2.24227 10.7838 2.22819 10.8178C2.21409 10.8518 2.20084 10.8862 2.18844 10.9208C2.17605 10.9555 2.16451 10.9904 2.15382 11.0257C2.14315 11.0609 2.13335 11.0964 2.1244 11.1321C2.11546 11.1678 2.1074 11.2038 2.10022 11.2399C2.09305 11.276 2.08677 11.3123 2.08137 11.3487C2.07599 11.3851 2.0715 11.4216 2.0679 11.4583C2.0643 11.4949 2.0616 11.5316 2.0598 11.5684C2.058 11.6052 2.05711 11.642 2.05713 11.6788Z"   fill="#FFFFFF" ></path><path d="M9.62598 11.6788C9.62598 11.7157 9.62688 11.7525 9.62868 11.7892C9.6305 11.826 9.6332 11.8627 9.6368 11.8994C9.64042 11.936 9.64493 11.9726 9.65033 12.009C9.65573 12.0454 9.66202 12.0817 9.6692 12.1178C9.67639 12.1539 9.68445 12.1898 9.69339 12.2256C9.70235 12.2613 9.71218 12.2968 9.72287 12.332C9.73355 12.3673 9.74509 12.4022 9.75749 12.4369C9.7699 12.4715 9.78316 12.5059 9.79726 12.5399C9.81134 12.5739 9.82625 12.6076 9.842 12.6409C9.85775 12.6742 9.8743 12.707 9.89164 12.7395C9.90901 12.772 9.92716 12.804 9.94609 12.8356C9.96501 12.8672 9.9847 12.8983 10.0052 12.9289C10.0256 12.9595 10.0468 12.9896 10.0687 13.0192C10.0907 13.0488 10.1133 13.0778 10.1367 13.1063C10.1601 13.1348 10.1841 13.1626 10.2088 13.1899C10.2336 13.2172 10.2589 13.2439 10.285 13.2699C10.311 13.2959 10.3377 13.3213 10.365 13.3461C10.3922 13.3708 10.4201 13.3948 10.4486 13.4182C10.4771 13.4416 10.5061 13.4642 10.5356 13.4862C10.5652 13.5081 10.5953 13.5293 10.6259 13.5497C10.6565 13.5702 10.6877 13.5899 10.7192 13.6088C10.7508 13.6277 10.7828 13.6459 10.8153 13.6633C10.8478 13.6806 10.8807 13.6972 10.914 13.7129C10.9473 13.7287 10.9809 13.7436 11.0149 13.7577C11.049 13.7717 11.0833 13.785 11.118 13.7974C11.1526 13.8098 11.1876 13.8214 11.2228 13.8321C11.2581 13.8427 11.2935 13.8526 11.3293 13.8615C11.365 13.8705 11.4009 13.8785 11.437 13.8857C11.4731 13.8929 11.5094 13.8992 11.5458 13.9046C11.5823 13.91 11.6188 13.9145 11.6554 13.9181C11.6921 13.9217 11.7288 13.9244 11.7656 13.9262C11.8023 13.928 11.8391 13.9289 11.876 13.9289C11.9128 13.9289 11.9496 13.928 11.9864 13.9262C12.0231 13.9244 12.0599 13.9217 12.0965 13.9181C12.1332 13.9145 12.1697 13.91 12.2061 13.9046C12.2425 13.8992 12.2788 13.8929 12.3149 13.8857C12.351 13.8785 12.3869 13.8705 12.4227 13.8615C12.4584 13.8526 12.4939 13.8427 12.5291 13.8321C12.5644 13.8214 12.5993 13.8098 12.634 13.7974C12.6686 13.785 12.703 13.7717 12.737 13.7577C12.771 13.7436 12.8047 13.7287 12.838 13.7129C12.8713 13.6972 12.9041 13.6806 12.9366 13.6633C12.9691 13.6459 13.0011 13.6277 13.0327 13.6088C13.0643 13.5899 13.0954 13.5702 13.126 13.5497C13.1566 13.5293 13.1867 13.5081 13.2163 13.4862C13.2458 13.4642 13.2749 13.4416 13.3033 13.4182C13.3318 13.3948 13.3597 13.3708 13.387 13.3461C13.4143 13.3213 13.4409 13.2959 13.4669 13.2699C13.493 13.2439 13.5184 13.2172 13.5431 13.1899C13.5678 13.1626 13.5919 13.1348 13.6152 13.1063C13.6386 13.0778 13.6613 13.0488 13.6832 13.0192C13.7051 12.9896 13.7263 12.9595 13.7468 12.9289C13.7672 12.8983 13.7869 12.8672 13.8058 12.8356C13.8248 12.804 13.8429 12.772 13.8603 12.7395C13.8776 12.707 13.8942 12.6742 13.9099 12.6409C13.9257 12.6076 13.9406 12.5739 13.9547 12.5399C13.9688 12.5059 13.982 12.4715 13.9944 12.4369C14.0069 12.4022 14.0184 12.3673 14.0291 12.332C14.0398 12.2968 14.0496 12.2613 14.0585 12.2256C14.0675 12.1898 14.0756 12.1539 14.0827 12.1178C14.0899 12.0817 14.0962 12.0454 14.1016 12.009C14.107 11.9726 14.1115 11.936 14.1151 11.8994C14.1187 11.8627 14.1214 11.826 14.1233 11.7892C14.1251 11.7525 14.126 11.7157 14.126 11.6788C14.126 11.642 14.1251 11.6052 14.1233 11.5684C14.1214 11.5316 14.1187 11.4949 14.1151 11.4583C14.1115 11.4216 14.107 11.3851 14.1016 11.3487C14.0962 11.3122 14.0899 11.276 14.0827 11.2399C14.0756 11.2037 14.0675 11.1678 14.0585 11.1321C14.0496 11.0964 14.0398 11.0609 14.0291 11.0256C14.0184 10.9904 14.0069 10.9555 13.9944 10.9208C13.982 10.8861 13.9688 10.8518 13.9547 10.8177C13.9406 10.7837 13.9257 10.7501 13.9099 10.7168C13.8942 10.6835 13.8776 10.6506 13.8603 10.6181C13.8429 10.5856 13.8248 10.5536 13.8058 10.522C13.7869 10.4904 13.7672 10.4593 13.7468 10.4287C13.7263 10.3981 13.7051 10.368 13.6832 10.3384C13.6613 10.3089 13.6386 10.2798 13.6152 10.2514C13.5919 10.2229 13.5678 10.195 13.5431 10.1677C13.5184 10.1405 13.493 10.1138 13.4669 10.0877C13.4409 10.0617 13.4143 10.0363 13.387 10.0116C13.3597 9.98687 13.3318 9.96282 13.3033 9.93946C13.2749 9.91609 13.2458 9.89345 13.2163 9.87151C13.1867 9.84957 13.1566 9.82837 13.126 9.80791C13.0954 9.78746 13.0643 9.76777 13.0327 9.74885C13.0011 9.72991 12.9691 9.71176 12.9366 9.69439C12.9041 9.67705 12.8713 9.6605 12.838 9.64475C12.8047 9.629 12.771 9.61408 12.737 9.6C12.703 9.5859 12.6686 9.57264 12.634 9.56023C12.5993 9.54784 12.5644 9.53629 12.5291 9.52561C12.4939 9.51492 12.4584 9.50509 12.4227 9.49613C12.3869 9.48719 12.351 9.47912 12.3149 9.47194C12.2788 9.46476 12.2425 9.45847 12.2061 9.45307C12.1697 9.44767 12.1332 9.44316 12.0965 9.43954C12.0599 9.43594 12.0231 9.43323 11.9864 9.43141C11.9496 9.42961 11.9128 9.42871 11.876 9.42871C11.8391 9.42871 11.8023 9.42961 11.7656 9.43141C11.7288 9.43323 11.6921 9.43594 11.6554 9.43954C11.6188 9.44316 11.5823 9.44767 11.5458 9.45307C11.5094 9.45847 11.4731 9.46476 11.437 9.47194C11.4009 9.47912 11.365 9.48719 11.3293 9.49613C11.2936 9.50509 11.2581 9.51492 11.2228 9.52561C11.1876 9.53629 11.1526 9.54784 11.118 9.56023C11.0833 9.57264 11.049 9.5859 11.0149 9.6C10.9809 9.61408 10.9473 9.629 10.914 9.64475C10.8807 9.6605 10.8478 9.67705 10.8153 9.69439C10.7828 9.71176 10.7508 9.72991 10.7192 9.74885C10.6877 9.76777 10.6565 9.78746 10.6259 9.80791C10.5953 9.82837 10.5652 9.84957 10.5356 9.87151C10.5061 9.89345 10.4771 9.91609 10.4486 9.93946C10.4201 9.96282 10.3922 9.98687 10.365 10.0116C10.3377 10.0363 10.311 10.0617 10.285 10.0877C10.2589 10.1138 10.2336 10.1405 10.2088 10.1677C10.1841 10.195 10.1601 10.2229 10.1367 10.2514C10.1133 10.2798 10.0907 10.3089 10.0687 10.3384C10.0468 10.368 10.0256 10.3981 10.0052 10.4287C9.9847 10.4593 9.96501 10.4904 9.94609 10.522C9.92716 10.5536 9.90901 10.5856 9.89164 10.6181C9.8743 10.6506 9.85775 10.6835 9.842 10.7168C9.82625 10.7501 9.81134 10.7837 9.79726 10.8177C9.78316 10.8518 9.7699 10.8861 9.75749 10.9208C9.74509 10.9555 9.73355 10.9904 9.72287 11.0256C9.71218 11.0609 9.70235 11.0964 9.69339 11.1321C9.68445 11.1678 9.67639 11.2037 9.6692 11.2399C9.66202 11.276 9.65573 11.3122 9.65033 11.3487C9.64493 11.3851 9.64042 11.4216 9.6368 11.4583C9.6332 11.4949 9.6305 11.5316 9.62868 11.5684C9.62688 11.6052 9.62598 11.642 9.62598 11.6788Z"   fill="#FFFFFF" ></path><path d="M17.1943 11.6788C17.1943 11.7157 17.1952 11.7525 17.197 11.7892C17.1989 11.826 17.2016 11.8627 17.2052 11.8994C17.2088 11.936 17.2133 11.9726 17.2187 12.009C17.2241 12.0454 17.2304 12.0817 17.2376 12.1178C17.2447 12.1539 17.2528 12.1898 17.2618 12.2256C17.2707 12.2613 17.2805 12.2968 17.2912 12.332C17.3019 12.3673 17.3135 12.4022 17.3258 12.4369C17.3383 12.4715 17.3515 12.5059 17.3656 12.5399C17.3797 12.5739 17.3946 12.6076 17.4104 12.6409C17.4261 12.6742 17.4427 12.707 17.46 12.7395C17.4774 12.772 17.4955 12.804 17.5145 12.8356C17.5334 12.8672 17.5531 12.8983 17.5735 12.9289C17.594 12.9595 17.6152 12.9896 17.6371 13.0192C17.659 13.0488 17.6817 13.0778 17.7051 13.1063C17.7284 13.1348 17.7525 13.1626 17.7772 13.1899C17.8019 13.2172 17.8273 13.2439 17.8533 13.2699C17.8794 13.2959 17.906 13.3213 17.9333 13.3461C17.9606 13.3708 17.9885 13.3948 18.017 13.4182C18.0454 13.4416 18.0744 13.4642 18.104 13.4862C18.1336 13.5081 18.1637 13.5293 18.1943 13.5497C18.2249 13.5702 18.256 13.5899 18.2876 13.6088C18.3192 13.6277 18.3512 13.6459 18.3837 13.6633C18.4162 13.6806 18.449 13.6972 18.4823 13.7129C18.5156 13.7287 18.5493 13.7436 18.5833 13.7577C18.6173 13.7717 18.6517 13.785 18.6863 13.7974C18.721 13.8098 18.756 13.8214 18.7912 13.8321C18.8264 13.8427 18.8619 13.8526 18.8976 13.8615C18.9334 13.8705 18.9693 13.8785 19.0054 13.8857C19.0415 13.8929 19.0778 13.8992 19.1142 13.9046C19.1506 13.91 19.1871 13.9145 19.2238 13.9181C19.2604 13.9217 19.2972 13.9244 19.3339 13.9262C19.3707 13.928 19.4075 13.9289 19.4443 13.9289C19.4812 13.9289 19.518 13.928 19.5547 13.9262C19.5915 13.9244 19.6282 13.9217 19.6649 13.9181C19.7015 13.9145 19.7381 13.91 19.7745 13.9046C19.8109 13.8992 19.8472 13.8929 19.8833 13.8857C19.9194 13.8785 19.9553 13.8705 19.991 13.8615C20.0267 13.8526 20.0622 13.8427 20.0975 13.8321C20.1327 13.8214 20.1676 13.8098 20.2023 13.7974C20.237 13.785 20.2713 13.7717 20.3054 13.7577C20.3394 13.7436 20.373 13.7287 20.4063 13.7129C20.4396 13.6972 20.4725 13.6806 20.505 13.6633C20.5375 13.6459 20.5695 13.6277 20.6011 13.6088C20.6326 13.5899 20.6637 13.5702 20.6944 13.5497C20.725 13.5293 20.7551 13.5081 20.7847 13.4862C20.8142 13.4642 20.8432 13.4416 20.8717 13.4182C20.9002 13.3948 20.9281 13.3708 20.9553 13.3461C20.9826 13.3213 21.0093 13.2959 21.0353 13.2699C21.0613 13.2439 21.0867 13.2172 21.1115 13.1899C21.1362 13.1626 21.1602 13.1348 21.1836 13.1063C21.207 13.0778 21.2296 13.0488 21.2516 13.0192C21.2735 12.9896 21.2947 12.9595 21.3151 12.9289C21.3356 12.8983 21.3553 12.8672 21.3742 12.8356C21.3931 12.804 21.4113 12.772 21.4287 12.7395C21.446 12.707 21.4625 12.6742 21.4783 12.6409C21.494 12.6076 21.509 12.5739 21.523 12.5399C21.5371 12.5059 21.5504 12.4715 21.5628 12.4369C21.5752 12.4022 21.5867 12.3673 21.5974 12.332C21.6081 12.2968 21.6179 12.2613 21.6269 12.2256C21.6359 12.1898 21.6439 12.1539 21.6511 12.1178C21.6583 12.0817 21.6646 12.0454 21.67 12.009C21.6754 11.9726 21.6799 11.936 21.6835 11.8994C21.6871 11.8627 21.6898 11.826 21.6916 11.7892C21.6934 11.7525 21.6943 11.7157 21.6943 11.6788C21.6943 11.642 21.6934 11.6052 21.6916 11.5684C21.6898 11.5316 21.6871 11.4949 21.6835 11.4583C21.6799 11.4216 21.6754 11.3851 21.67 11.3487C21.6646 11.3122 21.6583 11.276 21.6511 11.2399C21.6439 11.2037 21.6359 11.1678 21.6269 11.1321C21.6179 11.0964 21.6081 11.0609 21.5974 11.0256C21.5867 10.9904 21.5752 10.9555 21.5628 10.9208C21.5504 10.8861 21.5371 10.8518 21.523 10.8177C21.509 10.7837 21.494 10.7501 21.4783 10.7168C21.4625 10.6835 21.446 10.6506 21.4287 10.6181C21.4113 10.5856 21.3931 10.5536 21.3742 10.522C21.3553 10.4904 21.3356 10.4593 21.3151 10.4287C21.2947 10.3981 21.2735 10.368 21.2516 10.3384C21.2296 10.3089 21.207 10.2798 21.1836 10.2514C21.1602 10.2229 21.1362 10.195 21.1115 10.1677C21.0867 10.1405 21.0613 10.1138 21.0353 10.0877C21.0093 10.0617 20.9826 10.0363 20.9553 10.0116C20.9281 9.98687 20.9002 9.96282 20.8717 9.93946C20.8432 9.91609 20.8142 9.89345 20.7847 9.87151C20.7551 9.84957 20.725 9.82837 20.6944 9.80791C20.6637 9.78746 20.6326 9.76777 20.6011 9.74885C20.5695 9.72991 20.5375 9.71176 20.505 9.69439C20.4725 9.67705 20.4396 9.6605 20.4063 9.64475C20.373 9.629 20.3394 9.61408 20.3054 9.6C20.2713 9.5859 20.237 9.57264 20.2023 9.56023C20.1676 9.54784 20.1327 9.53629 20.0975 9.52561C20.0622 9.51492 20.0267 9.50509 19.991 9.49613C19.9553 9.48719 19.9194 9.47912 19.8833 9.47194C19.8472 9.46476 19.8109 9.45847 19.7745 9.45307C19.7381 9.44767 19.7015 9.44316 19.6649 9.43954C19.6282 9.43594 19.5915 9.43323 19.5547 9.43141C19.518 9.42961 19.4812 9.42871 19.4443 9.42871C19.4075 9.42871 19.3707 9.42961 19.3339 9.43141C19.2972 9.43323 19.2604 9.43594 19.2238 9.43954C19.1871 9.44316 19.1506 9.44767 19.1142 9.45307C19.0778 9.45847 19.0415 9.46476 19.0054 9.47194C18.9693 9.47912 18.9334 9.48719 18.8976 9.49613C18.8619 9.50509 18.8264 9.51492 18.7912 9.52561C18.756 9.53629 18.721 9.54784 18.6863 9.56023C18.6517 9.57264 18.6173 9.5859 18.5833 9.6C18.5493 9.61408 18.5156 9.629 18.4823 9.64475C18.449 9.6605 18.4162 9.67705 18.3837 9.69439C18.3512 9.71176 18.3192 9.72991 18.2876 9.74885C18.256 9.76777 18.2249 9.78746 18.1943 9.80791C18.1637 9.82837 18.1336 9.84957 18.104 9.87151C18.0744 9.89345 18.0454 9.91609 18.0169 9.93946C17.9885 9.96282 17.9606 9.98687 17.9333 10.0116C17.906 10.0363 17.8794 10.0617 17.8533 10.0877C17.8273 10.1138 17.8019 10.1405 17.7772 10.1677C17.7525 10.195 17.7284 10.2229 17.7051 10.2514C17.6817 10.2798 17.659 10.3089 17.6371 10.3384C17.6152 10.368 17.594 10.3981 17.5735 10.4287C17.5531 10.4593 17.5334 10.4904 17.5145 10.522C17.4955 10.5536 17.4774 10.5856 17.46 10.6181C17.4427 10.6506 17.4261 10.6835 17.4104 10.7168C17.3946 10.7501 17.3797 10.7837 17.3656 10.8177C17.3515 10.8518 17.3383 10.8861 17.3258 10.9208C17.3135 10.9555 17.3019 10.9904 17.2912 11.0256C17.2805 11.0609 17.2707 11.0964 17.2618 11.1321C17.2528 11.1678 17.2447 11.2037 17.2376 11.2399C17.2304 11.276 17.2241 11.3122 17.2187 11.3487C17.2133 11.3851 17.2088 11.4216 17.2052 11.4583C17.2016 11.4949 17.1989 11.5316 17.197 11.5684C17.1952 11.6052 17.1943 11.642 17.1943 11.6788Z"   fill="#FFFFFF" ></path></svg>